<svg width="457" height="407" viewBox="0 0 457 407" fill="none" xmlns="http://www.w3.org/2000/svg">
<path d="M252.511 0.125003C217.152 0.118995 182.398 9.26979 151.659 26.6798C120.919 44.0898 95.2486 69.1612 77.1657 99.4351C59.0828 129.709 49.2083 164.146 48.5105 199.368C47.8126 234.591 56.3151 269.389 73.1847 300.35L138.089 235.26C132.04 213.639 132.285 190.751 138.796 169.265C145.307 147.778 157.817 128.579 174.864 113.907C191.911 99.2339 212.794 89.6926 235.077 86.3955C257.36 83.0983 280.124 86.1813 300.716 95.2847C321.307 104.388 338.876 119.137 351.373 137.81C363.871 156.484 370.783 178.313 371.301 200.752C371.82 223.19 365.924 245.313 354.303 264.54C342.681 283.768 325.812 299.306 305.664 309.345L322.277 394.5C367.333 378.137 405.166 346.486 429.135 305.103C453.105 263.719 461.679 215.247 453.354 168.193C445.029 121.139 420.336 78.5087 383.609 47.7849C346.882 17.061 300.468 0.20621 252.511 0.178277V0.125003Z" fill="#0096FF"/>
<path d="M300.32 406.795H214.85L198.825 326.962L119.124 406.795H0L251.068 155.8L300.32 406.795Z" fill="#F53E5A"/>
</svg>
